0
SECTION
2
HEADER
9
$INSUNITS
70
4
9
$ACADVER
1
AC1014
9
$HANDSEED
5
FFFF
0
ENDSEC
0
SECTION
2
TABLES
0
TABLE
2
VPORT
5
8
100
AcDbSymbolTable
0
ENDTAB
0
TABLE
2
LTYPE
5
5
100
AcDbSymbolTable
0
LTYPE
5
14
100
AcDbSymbolTableRecord
100
AcDbLinetypeTableRecord
2
BYBLOCK
70
0
0
LTYPE
5
15
100
AcDbSymbolTableRecord
100
AcDbLinetypeTableRecord
2
BYLAYER
70
0
0
LTYPE
5
16
100
AcDbSymbolTableRecord
100
AcDbLinetypeTableRecord
2
DASHED
70
0
3
Dashed __ __ __ __ __ __ __ __ __ __ __ __ __ _
72
65
73
2
40
0.75
49
0.5
74
0
49
-0.25
74
0
0
ENDTAB
0
TABLE
2
LAYER
5
2
100
AcDbSymbolTable
70
2
0
LAYER
5
50
100
AcDbSymbolTableRecord
100
AcDbLayerTableRecord
2
0
70
0
62
7
6
CONTINUOUS
0
ENDTAB
0
TABLE
2
STYLE
5
3
100
AcDbSymbolTable
70
1
0
STYLE
5
11
100
AcDbSymbolTableRecord
100
AcDbTextStyleTableRecord
2
STANDARD
70
0
0
ENDTAB
0
TABLE
2
VIEW
5
6
100
AcDbSymbolTable
70
0
0
ENDTAB
0
TABLE
2
UCS
5
7
100
AcDbSymbolTable
70
0
0
ENDTAB
0
TABLE
2
APPID
5
9
100
AcDbSymbolTable
70
2
0
APPID
5
12
100
AcDbSymbolTableRecord
100
AcDbRegAppTableRecord
2
ACAD
70
0
0
ENDTAB
0
TABLE
2
DIMSTYLE
5
A
100
AcDbSymbolTable
70
1
0
ENDTAB
0
TABLE
2
BLOCK_RECORD
5
1
100
AcDbSymbolTable
70
1
0
BLOCK_RECORD
5
1F
100
AcDbSymbolTableRecord
100
AcDbBlockTableRecord
2
*MODEL_SPACE
0
BLOCK_RECORD
5
1B
100
AcDbSymbolTableRecord
100
AcDbBlockTableRecord
2
*PAPER_SPACE
0
ENDTAB
0
ENDSEC
0
SECTION
2
BLOCKS
0
BLOCK
5
20
100
AcDbEntity
100
AcDbBlockBegin
2
*MODEL_SPACE
0
ENDBLK
5
21
100
AcDbEntity
100
AcDbBlockEnd
0
BLOCK
5
1C
100
AcDbEntity
100
AcDbBlockBegin
2
*PAPER_SPACE
0
ENDBLK
5
1D
100
AcDbEntity
100
AcDbBlockEnd
0
ENDSEC
0
SECTION
2
ENTITIES
0
LWPOLYLINE
5
100
100
AcDbEntity
8
0
100
AcDbPolyline
90
4
70
1
43
0.0
10
2100
20
0
10
2100
20
3650
10
0
20
3650
10
0
20
0
0
LWPOLYLINE
5
101
100
AcDbEntity
8
0
100
AcDbPolyline
90
12
70
1
43
0.0
10
1468.6337831735202
20
0.75746715731642222
10
1459.9182088987545
20
100.37693696649097
10
1639.2332545552686
20
116.06497066106947
10
1744.920643480234
20
522.55011900258398
10
1570.7127227624424
20
567.84471425614072
10
1616.0073180159989
20
742.05263497393275
10
2099.9182088987545
20
616.23431482516469
10
2099.9182088987545
20
0.7574671573163827
10
1851.9182088987543
20
0.7574671573163827
10
1851.9182088987543
20
59.75746715731637
10
1747.9182088987545
20
59.757467157316377
10
1747.9182088987545
20
0.75746715731638048
0
LWPOLYLINE
5
102
100
AcDbEntity
8
0
100
AcDbPolyline
90
12
70
1
43
0.0
10
1777.4780461108671
20
874.46922137367733
10
1786.1936203856335
20
774.84975156450321
10
1606.8785747291199
20
759.16171786992447
10
1501.1911858041553
20
352.67656952841122
10
1675.3991065219466
20
307.38197427485511
10
1630.1045112683901
20
133.17405355706364
10
1146.1936203856365
20
258.99237370583057
10
1146.1936203856358
20
874.46922137367653
10
1394.1936203856349
20
874.46922137367676
10
1394.1936203856349
20
815.46922137367699
10
1498.1936203856344
20
815.46922137367699
10
1498.1936203856344
20
874.46922137367687
0
LWPOLYLINE
5
103
100
AcDbEntity
8
0
100
AcDbPolyline
90
4
70
1
43
0.0
10
1126.0342627315931
20
576.36290238795118
10
1126.0342627315933
20
6.3629023879526887
10
606.03426273159482
20
6.3629023879524027
10
606.03426273159459
20
576.36290238795073
0
ARC
5
104
100
AcDbEntity
8
0
100
AcDbCircle
10
-1245.7479259346399
20
291.36304230744292
30
0
40
2324.2821886662368
210
-0
220
0
230
1
100
AcDbArc
50
-4.6780350812392086
51
4.6503359695970135
0
ARC
5
105
100
AcDbEntity
8
0
100
AcDbCircle
10
1040.8913790747715
20
104.2495740128702
30
0
40
29.999999999997829
210
-0
220
0
230
1
100
AcDbArc
50
272.89119430471226
51
355.32196491876067
0
ARC
5
106
100
AcDbEntity
8
0
100
AcDbCircle
10
771.1761659558465
20
478.38451242684926
30
0
40
29.999999999981362
210
0
220
0
230
1
100
AcDbArc
50
92.744164882452722
51
175.30587207547111
0
ARC
5
107
100
AcDbEntity
8
0
100
AcDbCircle
10
3041.8289026698453
20
291.93715893349059
30
0
40
2308.2946399382508
210
0
220
0
230
1
100
AcDbArc
50
175.30587207547103
51
184.71770671557567
0
ARC
5
108
100
AcDbEntity
8
0
100
AcDbCircle
10
771.25308644690199
20
104.55538512534477
30
0
40
29.999999999867107
210
0
220
0
230
1
100
AcDbArc
50
184.71770671557533
51
266.97884137607247
0
ARC
5
109
100
AcDbEntity
8
0
100
AcDbCircle
10
896.27677088275141
20
-2131.6099473150471
30
0
40
2642.9908612998202
210
0
220
-0
230
1
100
AcDbArc
50
86.825393424614859
51
92.744164882452623
0
ARC
5
110
100
AcDbEntity
8
0
100
AcDbCircle
10
909.03317499331877
20
2715.1101197590151
30
0
40
2644.1880910365717
210
0
220
0
230
1
100
AcDbArc
50
266.97884137607309
51
272.89119430471226
0
ARC
5
111
100
AcDbEntity
8
0
100
AcDbCircle
10
1040.9815701262085
20
477.37103427771149
30
0
40
29.999999999919172
210
0
220
-0
230
1
100
AcDbArc
50
4.6503359695971715
51
86.825393424615186
0
LINE
5
112
100
AcDbEntity
8
0
100
AcDbLine
10
1609.9561599400158
20
981.50678264051317
30
0
11
1669.9561599400161
21
981.50678264051317
31
0
0
LWPOLYLINE
5
113
100
AcDbEntity
8
0
100
AcDbPolyline
90
4
70
1
43
0.0
10
1919.9561599400156
20
981.50678264051317
10
1979.9561599400156
20
981.50678264051112
42
-0.99999999999999989
10
1979.9561599400156
20
971.50678204446695
10
1919.9561599400156
20
971.50678204446672
42
-0.99999999999999989
0
LWPOLYLINE
5
114
100
AcDbEntity
8
0
100
AcDbPolyline
90
4
70
1
43
0.0
10
1979.9561599400156
20
991.50678264051317
42
0.99999999999999989
10
1979.9561599400156
20
1001.5067810013843
10
1919.9561599400156
20
1001.5067810013843
42
0.99999999999999989
10
1919.9561599400156
20
991.50678264051317
0
LWPOLYLINE
5
115
100
AcDbEntity
8
0
100
AcDbPolyline
90
4
70
1
43
0.0
10
1669.9561599400161
20
991.50678264051317
42
0.99999999999999989
10
1669.9561599400161
20
1001.5067810013843
10
1609.9561599400158
20
1001.5067810013842
42
0.99999999999999989
10
1609.9561599400158
20
991.50678264051305
0
ARC
5
116
100
AcDbEntity
8
0
100
AcDbCircle
10
1609.9561599400158
20
976.50678234248994
30
0
40
5.0000002980232239
210
0
220
-0
230
1
100
AcDbArc
50
90
51
270
0
LINE
5
117
100
AcDbEntity
8
0
100
AcDbLine
10
1669.9561599400161
20
971.50678204446672
30
0
11
1609.9544407570195
21
971.50678204446672
31
0
0
LWPOLYLINE
5
118
100
AcDbEntity
8
0
100
AcDbPolyline
90
4
70
1
43
0.0
10
2079.9561599400154
20
901.50678234249028
10
2079.9561599400154
20
896.50678234249028
10
1509.9561599400161
20
896.50678234248994
10
1509.9561599400161
20
901.50678234248994
0
LINE
5
119
100
AcDbEntity
8
0
100
AcDbLine
10
1509.9561599400161
20
1066.5067823424897
30
0
11
2079.9561599400154
21
1066.5067823424895
31
0
0
LINE
5
120
100
AcDbEntity
8
0
100
AcDbLine
10
1509.9561599400163
20
886.50678234248994
30
0
11
1509.9561599400161
21
1066.5067823424897
31
0
0
LINE
5
121
100
AcDbEntity
8
0
100
AcDbLine
10
2079.9561599400154
20
886.50678234249028
30
0
11
1509.9561599400163
21
886.50678234248994
31
0
0
ARC
5
122
100
AcDbEntity
8
0
100
AcDbCircle
10
1669.9561599400161
20
976.50678234248994
30
0
40
5.0000002980232239
210
-0
220
0
230
1
100
AcDbArc
50
-90
51
90
0
LWPOLYLINE
5
123
100
AcDbEntity
8
0
100
AcDbPolyline
90
4
70
1
43
0.0
10
582.85560771530243
20
644.69558914907054
10
12.855607715304131
20
644.69558914907054
10
12.855607715304131
20
649.69558914907054
10
582.85560771530243
20
649.69558914907054
0
LWPOLYLINE
5
124
100
AcDbEntity
8
0
100
AcDbPolyline
90
4
70
1
43
0.0
10
12.855607715304131
20
634.69558914907066
10
12.855607715304131
20
1119.6955891490697
10
582.85560771530243
20
1119.69558914907
10
582.85560771530243
20
634.69558914907066
0
LINE
5
125
100
AcDbEntity
8
0
100
AcDbLine
10
637.07504013607775
20
594.86062707505027
30
0
11
637.0750401360774
21
1164.8606270750495
31
0
0
LINE
5
126
100
AcDbEntity
8
0
100
AcDbLine
10
987.07504013607729
20
1164.8606270750495
30
0
11
987.07504013607729
21
594.86062707505027
31
0
0
LINE
5
127
100
AcDbEntity
8
0
100
AcDbLine
10
637.0750401360774
20
1164.8606270750495
30
0
11
987.07504013607729
21
1164.8606270750495
31
0
0
CIRCLE
5
128
100
AcDbEntity
8
0
100
AcDbCircle
10
445.87948311856792
20
510.88330788995859
30
0
40
10
210
0
220
0
230
1
0
CIRCLE
5
129
100
AcDbEntity
8
0
100
AcDbCircle
10
205.87948311856792
20
570.88330788995859
30
0
40
10
210
0
220
0
230
1
0
CIRCLE
5
130
100
AcDbEntity
8
0
100
AcDbCircle
10
235.87948311856792
20
480.88330788995859
30
0
40
10
210
0
220
0
230
1
0
CIRCLE
5
131
100
AcDbEntity
8
0
100
AcDbCircle
10
115.87948311856792
20
570.88330788995859
30
0
40
10
210
0
220
0
230
1
0
CIRCLE
5
132
100
AcDbEntity
8
0
100
AcDbCircle
10
55.879483118567919
20
540.88330788995859
30
0
40
10
210
0
220
0
230
1
0
CIRCLE
5
133
100
AcDbEntity
8
0
100
AcDbCircle
10
385.87948311856792
20
570.88330788995859
30
0
40
10
210
0
220
0
230
1
0
CIRCLE
5
134
100
AcDbEntity
8
0
100
AcDbCircle
10
235.87948311856792
20
540.88330788995859
30
0
40
10
210
0
220
0
230
1
0
CIRCLE
5
135
100
AcDbEntity
8
0
100
AcDbCircle
10
205.87948311856792
20
480.88330788995859
30
0
40
10
210
0
220
0
230
1
0
CIRCLE
5
136
100
AcDbEntity
8
0
100
AcDbCircle
10
235.87948311856792
20
510.88330788995859
30
0
40
10
210
0
220
0
230
1
0
CIRCLE
5
137
100
AcDbEntity
8
0
100
AcDbCircle
10
415.87948311856792
20
570.88330788995859
30
0
40
10
210
0
220
0
230
1
0
CIRCLE
5
138
100
AcDbEntity
8
0
100
AcDbCircle
10
85.879483118567919
20
540.88330788995859
30
0
40
10
210
0
220
0
230
1
0
CIRCLE
5
139
100
AcDbEntity
8
0
100
AcDbCircle
10
355.87948311856792
20
510.88330788995859
30
0
40
10
210
0
220
0
230
1
0
CIRCLE
5
140
100
AcDbEntity
8
0
100
AcDbCircle
10
235.87948311856792
20
570.88330788995859
30
0
40
10
210
0
220
0
230
1
0
CIRCLE
5
141
100
AcDbEntity
8
0
100
AcDbCircle
10
475.87948311856792
20
540.88330788995859
30
0
40
10
210
0
220
0
230
1
0
CIRCLE
5
142
100
AcDbEntity
8
0
100
AcDbCircle
10
535.87948311856792
20
540.88330788995859
30
0
40
10
210
0
220
0
230
1
0
CIRCLE
5
143
100
AcDbEntity
8
0
100
AcDbCircle
10
205.87948311856792
20
510.88330788995859
30
0
40
10
210
0
220
0
230
1
0
CIRCLE
5
144
100
AcDbEntity
8
0
100
AcDbCircle
10
115.87948311856792
20
480.88330788995859
30
0
40
10
210
0
220
0
230
1
0
CIRCLE
5
145
100
AcDbEntity
8
0
100
AcDbCircle
10
505.87948311856792
20
510.88330788995859
30
0
40
10
210
0
220
0
230
1
0
CIRCLE
5
146
100
AcDbEntity
8
0
100
AcDbCircle
10
475.87948311856792
20
510.88330788995859
30
0
40
10
210
0
220
0
230
1
0
CIRCLE
5
147
100
AcDbEntity
8
0
100
AcDbCircle
10
175.87948311856792
20
480.88330788995859
30
0
40
10
210
0
220
0
230
1
0
CIRCLE
5
148
100
AcDbEntity
8
0
100
AcDbCircle
10
325.87948311856792
20
480.88330788995859
30
0
40
10
210
0
220
0
230
1
0
CIRCLE
5
149
100
AcDbEntity
8
0
100
AcDbCircle
10
535.87948311856792
20
480.88330788995859
30
0
40
10
210
0
220
0
230
1
0
CIRCLE
5
150
100
AcDbEntity
8
0
100
AcDbCircle
10
445.87948311856792
20
540.88330788995859
30
0
40
10
210
0
220
0
230
1
0
CIRCLE
5
151
100
AcDbEntity
8
0
100
AcDbCircle
10
85.879483118567919
20
510.88330788995859
30
0
40
10
210
0
220
0
230
1
0
CIRCLE
5
152
100
AcDbEntity
8
0
100
AcDbCircle
10
475.87948311856792
20
480.88330788995859
30
0
40
10
210
0
220
0
230
1
0
CIRCLE
5
153
100
AcDbEntity
8
0
100
AcDbCircle
10
505.87948311856792
20
570.88330788995859
30
0
40
10
210
0
220
0
230
1
0
CIRCLE
5
154
100
AcDbEntity
8
0
100
AcDbCircle
10
115.87948311856792
20
540.88330788995859
30
0
40
10
210
0
220
0
230
1
0
CIRCLE
5
155
100
AcDbEntity
8
0
100
AcDbCircle
10
265.87948311856792
20
510.88330788995859
30
0
40
10
210
0
220
0
230
1
0
CIRCLE
5
156
100
AcDbEntity
8
0
100
AcDbCircle
10
175.87948311856792
20
510.88330788995859
30
0
40
10
210
0
220
0
230
1
0
CIRCLE
5
157
100
AcDbEntity
8
0
100
AcDbCircle
10
205.87948311856792
20
540.88330788995859
30
0
40
10
210
0
220
0
230
1
0
CIRCLE
5
158
100
AcDbEntity
8
0
100
AcDbCircle
10
295.87948311856792
20
570.88330788995859
30
0
40
10
210
0
220
0
230
1
0
CIRCLE
5
159
100
AcDbEntity
8
0
100
AcDbCircle
10
145.87948311856792
20
480.88330788995859
30
0
40
10
210
0
220
0
230
1
0
CIRCLE
5
160
100
AcDbEntity
8
0
100
AcDbCircle
10
415.87948311856792
20
510.88330788995859
30
0
40
10
210
0
220
0
230
1
0
CIRCLE
5
161
100
AcDbEntity
8
0
100
AcDbCircle
10
415.87948311856792
20
540.88330788995859
30
0
40
10
210
0
220
0
230
1
0
CIRCLE
5
162
100
AcDbEntity
8
0
100
AcDbCircle
10
55.879483118567919
20
480.88330788995859
30
0
40
10
210
0
220
0
230
1
0
CIRCLE
5
163
100
AcDbEntity
8
0
100
AcDbCircle
10
145.87948311856792
20
570.88330788995859
30
0
40
10
210
0
220
0
230
1
0
CIRCLE
5
164
100
AcDbEntity
8
0
100
AcDbCircle
10
355.87948311856792
20
570.88330788995859
30
0
40
10
210
0
220
0
230
1
0
CIRCLE
5
165
100
AcDbEntity
8
0
100
AcDbCircle
10
115.87948311856792
20
510.88330788995859
30
0
40
10
210
0
220
0
230
1
0
CIRCLE
5
166
100
AcDbEntity
8
0
100
AcDbCircle
10
175.87948311856792
20
540.88330788995859
30
0
40
10
210
0
220
0
230
1
0
CIRCLE
5
167
100
AcDbEntity
8
0
100
AcDbCircle
10
85.879483118567919
20
570.88330788995859
30
0
40
10
210
0
220
0
230
1
0
CIRCLE
5
168
100
AcDbEntity
8
0
100
AcDbCircle
10
265.87948311856792
20
540.88330788995859
30
0
40
10
210
0
220
0
230
1
0
CIRCLE
5
169
100
AcDbEntity
8
0
100
AcDbCircle
10
55.879483118567919
20
510.88330788995859
30
0
40
10
210
0
220
0
230
1
0
CIRCLE
5
170
100
AcDbEntity
8
0
100
AcDbCircle
10
145.87948311856792
20
510.88330788995859
30
0
40
10
210
0
220
0
230
1
0
CIRCLE
5
171
100
AcDbEntity
8
0
100
AcDbCircle
10
295.87948311856792
20
510.88330788995859
30
0
40
10
210
0
220
0
230
1
0
CIRCLE
5
172
100
AcDbEntity
8
0
100
AcDbCircle
10
175.87948311856792
20
570.88330788995859
30
0
40
10
210
0
220
0
230
1
0
CIRCLE
5
173
100
AcDbEntity
8
0
100
AcDbCircle
10
505.87948311856792
20
480.88330788995859
30
0
40
10
210
0
220
0
230
1
0
CIRCLE
5
174
100
AcDbEntity
8
0
100
AcDbCircle
10
445.87948311856792
20
570.88330788995859
30
0
40
10
210
0
220
0
230
1
0
CIRCLE
5
175
100
AcDbEntity
8
0
100
AcDbCircle
10
415.87948311856792
20
480.88330788995859
30
0
40
10
210
0
220
0
230
1
0
CIRCLE
5
176
100
AcDbEntity
8
0
100
AcDbCircle
10
355.87948311856792
20
540.88330788995859
30
0
40
10
210
0
220
0
230
1
0
CIRCLE
5
177
100
AcDbEntity
8
0
100
AcDbCircle
10
85.879483118567919
20
480.88330788995859
30
0
40
10
210
0
220
0
230
1
0
CIRCLE
5
178
100
AcDbEntity
8
0
100
AcDbCircle
10
265.87948311856792
20
570.88330788995859
30
0
40
10
210
0
220
0
230
1
0
CIRCLE
5
179
100
AcDbEntity
8
0
100
AcDbCircle
10
295.87948311856792
20
540.88330788995859
30
0
40
10
210
0
220
0
230
1
0
CIRCLE
5
180
100
AcDbEntity
8
0
100
AcDbCircle
10
385.87948311856792
20
540.88330788995859
30
0
40
10
210
0
220
0
230
1
0
CIRCLE
5
181
100
AcDbEntity
8
0
100
AcDbCircle
10
325.87948311856792
20
570.88330788995859
30
0
40
10
210
0
220
0
230
1
0
CIRCLE
5
182
100
AcDbEntity
8
0
100
AcDbCircle
10
475.87948311856792
20
570.88330788995859
30
0
40
10
210
0
220
0
230
1
0
CIRCLE
5
183
100
AcDbEntity
8
0
100
AcDbCircle
10
385.87948311856792
20
480.88330788995859
30
0
40
10
210
0
220
0
230
1
0
CIRCLE
5
184
100
AcDbEntity
8
0
100
AcDbCircle
10
505.87948311856792
20
540.88330788995859
30
0
40
10
210
0
220
0
230
1
0
CIRCLE
5
185
100
AcDbEntity
8
0
100
AcDbCircle
10
55.879483118567919
20
570.88330788995859
30
0
40
10
210
0
220
0
230
1
0
CIRCLE
5
186
100
AcDbEntity
8
0
100
AcDbCircle
10
385.87948311856792
20
510.88330788995859
30
0
40
10
210
0
220
0
230
1
0
CIRCLE
5
187
100
AcDbEntity
8
0
100
AcDbCircle
10
145.87948311856792
20
540.88330788995859
30
0
40
10
210
0
220
0
230
1
0
CIRCLE
5
188
100
AcDbEntity
8
0
100
AcDbCircle
10
265.87948311856792
20
480.88330788995859
30
0
40
10
210
0
220
0
230
1
0
CIRCLE
5
189
100
AcDbEntity
8
0
100
AcDbCircle
10
445.87948311856792
20
480.88330788995859
30
0
40
10
210
0
220
0
230
1
0
CIRCLE
5
190
100
AcDbEntity
8
0
100
AcDbCircle
10
325.87948311856792
20
540.88330788995859
30
0
40
10
210
0
220
0
230
1
0
CIRCLE
5
191
100
AcDbEntity
8
0
100
AcDbCircle
10
535.87948311856792
20
570.88330788995859
30
0
40
10
210
0
220
0
230
1
0
CIRCLE
5
192
100
AcDbEntity
8
0
100
AcDbCircle
10
535.87948311856792
20
510.88330788995859
30
0
40
10
210
0
220
0
230
1
0
CIRCLE
5
193
100
AcDbEntity
8
0
100
AcDbCircle
10
295.87948311856792
20
480.88330788995859
30
0
40
10
210
0
220
0
230
1
0
LWPOLYLINE
5
194
100
AcDbEntity
8
0
100
AcDbPolyline
90
4
70
1
43
0.0
10
10.879483118567919
20
15.883307889958616
10
10.879483118567919
20
615.88330788995859
10
580.87948311856792
20
615.88330788995859
10
580.87948311856792
20
15.883307889958616
0
CIRCLE
5
195
100
AcDbEntity
8
0
100
AcDbCircle
10
355.87948311856792
20
480.88330788995859
30
0
40
10
210
0
220
0
230
1
0
CIRCLE
5
196
100
AcDbEntity
8
0
100
AcDbCircle
10
325.87948311856792
20
510.88330788995859
30
0
40
10
210
0
220
0
230
1
0
LINE
5
197
100
AcDbEntity
8
0
100
AcDbLine
10
987.07504013607729
20
594.86062707505027
30
0
11
637.07504013607775
21
594.86062707505027
31
0
0
LINE
5
198
100
AcDbEntity
8
0
100
AcDbLine
10
2079.9561599400154
20
1066.5067823424895
30
0
11
2079.9561599400154
21
886.50678234249028
31
0
0
ENDSEC
0
SECTION
2
OBJECTS
0
DICTIONARY
5
C
100
AcDbDictionary
3
ACAD_GROUP
350
D
3
ACAD_MLINESTYLE
350
17
0
DICTIONARY
5
D
100
AcDbDictionary
0
DICTIONARY
5
1A
330
C
100
AcDbDictionary
0
DICTIONARY
5
17
100
AcDbDictionary
0
ENDSEC
0
EOF
