0
SECTION
2
HEADER
9
$INSUNITS
70
4
9
$ACADVER
1
AC1014
9
$HANDSEED
5
FFFF
0
ENDSEC
0
SECTION
2
TABLES
0
TABLE
2
VPORT
5
8
100
AcDbSymbolTable
0
ENDTAB
0
TABLE
2
LTYPE
5
5
100
AcDbSymbolTable
0
LTYPE
5
14
100
AcDbSymbolTableRecord
100
AcDbLinetypeTableRecord
2
BYBLOCK
70
0
0
LTYPE
5
15
100
AcDbSymbolTableRecord
100
AcDbLinetypeTableRecord
2
BYLAYER
70
0
0
LTYPE
5
16
100
AcDbSymbolTableRecord
100
AcDbLinetypeTableRecord
2
DASHED
70
0
3
Dashed __ __ __ __ __ __ __ __ __ __ __ __ __ _
72
65
73
2
40
0.75
49
0.5
74
0
49
-0.25
74
0
0
ENDTAB
0
TABLE
2
LAYER
5
2
100
AcDbSymbolTable
70
2
0
LAYER
5
50
100
AcDbSymbolTableRecord
100
AcDbLayerTableRecord
2
0
70
0
62
7
6
CONTINUOUS
0
ENDTAB
0
TABLE
2
STYLE
5
3
100
AcDbSymbolTable
70
1
0
STYLE
5
11
100
AcDbSymbolTableRecord
100
AcDbTextStyleTableRecord
2
STANDARD
70
0
0
ENDTAB
0
TABLE
2
VIEW
5
6
100
AcDbSymbolTable
70
0
0
ENDTAB
0
TABLE
2
UCS
5
7
100
AcDbSymbolTable
70
0
0
ENDTAB
0
TABLE
2
APPID
5
9
100
AcDbSymbolTable
70
2
0
APPID
5
12
100
AcDbSymbolTableRecord
100
AcDbRegAppTableRecord
2
ACAD
70
0
0
ENDTAB
0
TABLE
2
DIMSTYLE
5
A
100
AcDbSymbolTable
70
1
0
ENDTAB
0
TABLE
2
BLOCK_RECORD
5
1
100
AcDbSymbolTable
70
1
0
BLOCK_RECORD
5
1F
100
AcDbSymbolTableRecord
100
AcDbBlockTableRecord
2
*MODEL_SPACE
0
BLOCK_RECORD
5
1B
100
AcDbSymbolTableRecord
100
AcDbBlockTableRecord
2
*PAPER_SPACE
0
ENDTAB
0
ENDSEC
0
SECTION
2
BLOCKS
0
BLOCK
5
20
100
AcDbEntity
100
AcDbBlockBegin
2
*MODEL_SPACE
0
ENDBLK
5
21
100
AcDbEntity
100
AcDbBlockEnd
0
BLOCK
5
1C
100
AcDbEntity
100
AcDbBlockBegin
2
*PAPER_SPACE
0
ENDBLK
5
1D
100
AcDbEntity
100
AcDbBlockEnd
0
ENDSEC
0
SECTION
2
ENTITIES
0
LWPOLYLINE
5
100
100
AcDbEntity
8
OUTER_PROFILES
100
AcDbPolyline
90
4
70
1
43
0.0
10
570
20
-3.5527136788005009e-14
10
569.99999999999989
20
484.00000000000023
10
-1.4210854715202004e-13
20
484.00000000000006
10
0
20
0
0
LWPOLYLINE
5
101
100
AcDbEntity
8
INTERIOR_PROFILES
100
AcDbPolyline
90
8
70
1
43
0.0
10
239.99999999999986
20
466.00000000000011
10
240.99999999999989
20
466.00000000000011
10
240.99999999999989
20
449.00000000000006
10
254.99999999999986
20
449.00000000000006
10
254.99999999999986
20
466.00000000000011
10
255.99999999999989
20
466.00000000000011
10
255.99999999999989
20
448
10
239.99999999999986
20
448
0
LWPOLYLINE
5
102
100
AcDbEntity
8
INTERIOR_PROFILES
100
AcDbPolyline
90
4
70
1
43
0.0
10
483.49999999999994
20
389.50000000000034
10
519.99999999999989
20
389.50000000000034
10
519.99999999999989
20
353.00000000000034
10
483.49999999999994
20
353.00000000000023
0
CIRCLE
5
103
100
AcDbEntity
8
INTERIOR_PROFILES
100
AcDbCircle
10
-417.23654403271871
20
387.51345596730033
30
0
40
1.25
210
0
220
0
230
-1
0
LWPOLYLINE
5
104
100
AcDbEntity
8
INTERIOR_PROFILES
100
AcDbPolyline
90
4
70
1
43
0.0
10
162.99999999999977
20
389.5
10
162.99999999999977
20
353.00000000000011
10
126.49999999999977
20
353
10
126.49999999999977
20
389.5
0
LWPOLYLINE
5
105
100
AcDbEntity
8
INTERIOR_PROFILES
100
AcDbPolyline
90
4
70
1
43
0.0
10
303.24999999999983
20
303.00000000000006
10
266.74999999999989
20
303.00000000000006
10
266.74999999999989
20
321.50000000000006
10
303.24999999999983
20
321.50000000000006
0
CIRCLE
5
106
100
AcDbEntity
8
INTERIOR_PROFILES
100
AcDbCircle
10
-449.76345596731875
20
387.51345596730033
30
0
40
1.25
210
0
220
0
230
-1
0
CIRCLE
5
107
100
AcDbEntity
8
INTERIOR_PROFILES
100
AcDbCircle
10
-417.23654403271871
20
354.98654403270024
30
0
40
1.25
210
0
220
0
230
-1
0
CIRCLE
5
108
100
AcDbEntity
8
INTERIOR_PROFILES
100
AcDbCircle
10
-449.76345596731875
20
354.98654403270029
30
0
40
1.25
210
0
220
0
230
-1
0
CIRCLE
5
109
100
AcDbEntity
8
INTERIOR_PROFILES
100
AcDbCircle
10
-369.99999999999989
20
454.99999999999989
30
0
40
1.7499999999999716
210
0
220
0
230
-1
0
CIRCLE
5
110
100
AcDbEntity
8
INTERIOR_PROFILES
100
AcDbCircle
10
-247.99999999999983
20
454.99999999999989
30
0
40
1.7499999999999716
210
0
220
0
230
-1
0
LWPOLYLINE
5
111
100
AcDbEntity
8
INTERIOR_PROFILES
100
AcDbPolyline
90
8
70
1
43
0.0
10
49.999999999999858
20
353.00000000000011
10
49.999999999999858
20
371.50000000000006
10
68.249999999999886
20
371.50000000000006
10
68.249999999999815
20
389.50000000000011
10
86.749999999999829
20
389.5
10
86.749999999999829
20
371.50000000000006
10
104.99999999999972
20
371.50000000000023
10
104.99999999999972
20
353.00000000000017
0
LWPOLYLINE
5
112
100
AcDbEntity
8
INTERIOR_PROFILES
100
AcDbPolyline
90
4
70
1
43
0.0
10
312.49999999999989
20
359.00000000000006
10
312.49999999999989
20
340.50000000000006
10
257.49999999999989
20
340.50000000000006
10
257.49999999999989
20
359.00000000000006
0
LWPOLYLINE
5
113
100
AcDbEntity
8
INTERIOR_PROFILES
100
AcDbPolyline
90
8
70
1
43
0.0
10
376.99999999999989
20
466.00000000000011
10
377.99999999999983
20
466.00000000000011
10
377.99999999999983
20
448
10
361.99999999999989
20
448
10
361.99999999999989
20
466.00000000000011
10
362.99999999999983
20
466.00000000000011
10
362.99999999999983
20
449.00000000000006
10
376.99999999999989
20
449.00000000000006
0
LWPOLYLINE
5
114
100
AcDbEntity
8
INTERIOR_PROFILES
100
AcDbPolyline
90
4
70
1
43
0.0
10
252.99999999999989
20
394.00000000000006
10
316.99999999999994
20
394.00000000000006
10
316.99999999999994
20
378.00000000000011
10
252.99999999999989
20
378.00000000000006
0
CIRCLE
5
115
100
AcDbEntity
8
INTERIOR_PROFILES
100
AcDbCircle
10
-369.99999999999989
20
373.00000000000011
30
0
40
1.7500000000000426
210
0
220
0
230
-1
0
CIRCLE
5
116
100
AcDbEntity
8
INTERIOR_PROFILES
100
AcDbCircle
10
-247.99999999999989
20
373.00000000000006
30
0
40
1.7499999999999716
210
0
220
0
230
-1
0
CIRCLE
5
117
100
AcDbEntity
8
INTERIOR_PROFILES
100
AcDbCircle
10
-433.49999999999994
20
371.25000000000028
30
0
40
19.500000000000028
210
0
220
0
230
-1
0
ENDSEC
0
SECTION
2
OBJECTS
0
DICTIONARY
5
C
100
AcDbDictionary
3
ACAD_GROUP
350
D
3
ACAD_MLINESTYLE
350
17
0
DICTIONARY
5
D
100
AcDbDictionary
0
DICTIONARY
5
1A
330
C
100
AcDbDictionary
0
DICTIONARY
5
17
100
AcDbDictionary
0
ENDSEC
0
EOF
